<?xml version="1.0" encoding="UTF-8"?>
<svg version="1.1" xmlns="http://www.w3.org/2000/svg" width="180" height="180">
<path d="M0 0 C0.94359375 0.71736328 0.94359375 0.71736328 1.90625 1.44921875 C17.22642976 13.60090679 29.13033151 35.39797507 31.76855469 54.66259766 C34.47697354 82.01534253 29.55361227 106.41829565 12 128 C11.52175781 128.6290625 11.04351562 129.258125 10.55078125 129.90625 C-1.60090679 145.22642976 -23.39797507 157.13033151 -42.66259766 159.76855469 C-70.01534253 162.47697354 -94.41829565 157.55361227 -116 140 C-116.94359375 139.28263672 -116.94359375 139.28263672 -117.90625 138.55078125 C-133.22642976 126.39909321 -145.13033151 104.60202493 -147.76855469 85.33740234 C-150.47697354 57.98465747 -145.55361227 33.58170435 -128 12 C-127.52175781 11.3709375 -127.04351562 10.741875 -126.55078125 10.09375 C-114.39909321 -5.22642976 -92.60202493 -17.13033151 -73.33740234 -19.76855469 C-45.98465747 -22.47697354 -21.58170435 -17.55361227 0 0 Z " fill="#000000" transform="translate(148,20)"/>
<path d="M0 0 C6.18547562 3.37271197 11.00309838 9.17419638 15.8671875 14.17578125 C18.24359972 16.60868958 20.68718428 18.88474304 23.29296875 21.07421875 C29.6122345 26.46773219 36.21114176 32.33957042 37.31640625 40.9375 C37.43447046 49.09573674 35.80586733 54.41276453 30.1875 60.37109375 C26.27791999 64.87903021 23.86498751 69.9758539 21.29296875 75.32421875 C20.77460449 76.38165283 20.25624023 77.43908691 19.72216797 78.52856445 C18.12919329 81.78793507 16.55226285 85.05458811 14.98046875 88.32421875 C14.51979004 89.27989746 14.05911133 90.23557617 13.58447266 91.22021484 C11.35655759 95.84805012 9.14253863 100.4823193 6.9375 105.12109375 C3.41949485 112.51586004 -0.14413949 119.88850906 -3.70703125 127.26171875 C-4.33838124 128.56860239 -4.96972896 129.87548712 -5.60107422 131.18237305 C-7.0734579 134.22986544 -8.54633905 137.2771171 -10.01953125 140.32421875 C-11.00953125 140.32421875 -11.99953125 140.32421875 -13.01953125 140.32421875 C-13.33566628 139.44765121 -13.33566628 139.44765121 -13.65818787 138.55337524 C-15.84658302 132.4862241 -18.03668175 126.41968992 -20.2277832 120.35351562 C-21.04593159 118.08772395 -21.86364141 115.82177387 -22.6809082 113.55566406 C-23.85383437 110.30362136 -25.02832237 107.05214647 -26.203125 103.80078125 C-26.56981796 102.78303619 -26.93651093 101.76529114 -27.3143158 100.71670532 C-27.65459305 99.77588104 -27.9948703 98.83505676 -28.34545898 97.86572266 C-28.64524155 97.03521393 -28.94502411 96.2047052 -29.25389099 95.34902954 C-29.98999351 93.29832857 -29.98999351 93.29832857 -31.01953125 91.32421875 C-34.41200168 97.8588954 -37.39886451 104.44313847 -40.01953125 111.32421875 C-40.67953125 111.32421875 -41.33953125 111.32421875 -42.01953125 111.32421875 C-42.10056595 110.71780045 -42.18160065 110.11138214 -42.26509094 109.48658752 C-43.11470398 103.14170452 -43.9766001 96.79857434 -44.84545898 90.45629883 C-45.16758645 88.09311485 -45.48664136 85.72950984 -45.80249023 83.36547852 C-46.25856857 79.95602361 -46.72589021 76.54826517 -47.1953125 73.140625 C-47.3329451 72.0933876 -47.4705777 71.04615021 -47.61238098 69.96717834 C-48.47610756 63.79190784 -49.83845266 58.16225278 -52.01953125 52.32421875 C-52.98460275 49.42900424 -53.3145615 47.22993895 -53.45703125 44.19921875 C-53.54791016 42.86503906 -53.54791016 42.86503906 -53.640625 41.50390625 C-51.78414792 31.99967768 -42.9996574 24.80685034 -36.38012695 18.23876953 C-34.70826923 16.57545041 -33.05599792 14.89424653 -31.40429688 13.2109375 C-22.56297429 4.30804524 -13.41549015 -4.4891292 0 0 Z " fill="#B3E209" transform="translate(99.01953125,25.67578125)"/>
<path d="M0 0 C6.89884309 3.42424329 13.51181239 9.02362479 17 16 C17.85114385 21.95800698 16.16371426 25.17110152 12.78515625 29.8515625 C8.42230909 35.10225383 3.64319592 39.1984969 -3.125 40.6875 C-11.1814316 39.2581331 -17.21054049 31.33444644 -22 25 C-23.43304064 22.13391871 -23.30644155 20.18699217 -23 17 C-18.76431474 8.71278972 -10.06326234 -1.51898299 0 0 Z " fill="#FCFDF8" transform="translate(94,50)"/>
</svg>
