<?xml version="1.0" encoding="UTF-8"?>
<svg version="1.1" xmlns="http://www.w3.org/2000/svg" width="1200" height="600">
<path d="M0 0 C6.61022895 5.09780857 12.34295544 11.26216665 18.1640625 17.2265625 C20.26039674 19.27669654 22.35367567 21.18960629 24.57421875 23.09375 C29.78397286 27.61173723 34.69055257 32.43213626 39.58276367 37.28759766 C40.65352178 38.34678969 41.7287438 39.4014878 42.80834961 40.45166016 C51.5956089 49.00063443 58.93977454 56.70525912 59.29321289 69.53271484 C59.40519543 81.68069431 56.81897021 88.76630654 48.21875 97.67578125 C42.77316768 103.38022048 39.74674588 109.33328682 36.4375 116.4375 C35.36612394 118.7051556 34.29317734 120.97206977 33.21875 123.23828125 C32.67992187 124.37604004 32.14109375 125.51379883 31.5859375 126.68603516 C29.26705017 131.53156728 26.85846075 136.32986246 24.4375 141.125 C20.22038384 149.49647086 16.14676309 157.92831232 12.12475586 166.39501953 C8.55616032 173.88710556 4.86176614 181.31012309 1.12939453 188.72167969 C-2.68017383 196.30826758 -6.34759553 203.9579699 -9.99145508 211.62524414 C-14.20686985 220.47814944 -18.57579433 229.24990434 -23 238 C-23.66 238 -24.32 238 -25 238 C-27.54197509 231.10373212 -30.08364013 224.20735004 -32.62498569 217.31085014 C-33.83861719 214.01746249 -35.0523943 210.72412863 -36.26647949 207.4309082 C-45.79656854 181.5803261 -45.79656854 181.5803261 -49.80859375 170.5703125 C-50.07239334 169.84709808 -50.33619293 169.12388367 -50.60798645 168.37875366 C-51.76407981 165.20867311 -52.91733441 162.03764903 -54.06567383 158.86474609 C-54.45134521 157.80594238 -54.8370166 156.74713867 -55.234375 155.65625 C-55.55631836 154.76744141 -55.87826172 153.87863281 -56.20996094 152.96289062 C-56.8386432 151.03070712 -56.8386432 151.03070712 -58 150 C-58.4439209 151.08531006 -58.8878418 152.17062012 -59.34521484 153.28881836 C-60.98961191 157.30400668 -62.64285189 161.31550271 -64.29882812 165.32592773 C-65.01512629 167.06418578 -65.72900269 168.8034438 -66.44042969 170.54370117 C-67.46178557 173.04090209 -68.4917171 175.53441026 -69.5234375 178.02734375 C-69.84122162 178.80963852 -70.15900574 179.59193329 -70.48641968 180.39793396 C-72.77225659 185.88612829 -72.77225659 185.88612829 -75 187 C-75.16651062 185.82537704 -75.33302124 184.65075409 -75.50457764 183.4405365 C-77.07737941 172.35923383 -78.66560477 161.28023674 -80.26887131 150.20329952 C-81.09259043 144.50875782 -81.91089753 138.81354823 -82.71679688 133.11645508 C-83.49505375 127.61621579 -84.28757757 122.11820358 -85.08994293 116.62143135 C-85.39322842 114.52626821 -85.69140713 112.43035915 -85.98433685 110.33372307 C-86.39621874 107.39212474 -86.82634962 104.4537274 -87.26074219 101.51538086 C-87.37727142 100.65222763 -87.49380066 99.7890744 -87.61386108 98.89976501 C-88.44945409 93.41732487 -90.01002608 89.67393646 -93 85 C-95.66241362 77.852772 -95.06412585 66.76600469 -92.5625 59.625 C-89.79360501 53.84685455 -85.48290714 49.49588227 -81 45 C-80.48131348 44.47970215 -79.96262695 43.9594043 -79.42822266 43.42333984 C-74.94712365 38.93432603 -74.94712365 38.93432603 -72.78149414 36.81713867 C-69.98905282 34.07244623 -67.33398712 31.2706397 -64.78125 28.30078125 C-60.57090755 23.43580671 -56.09569209 18.83822758 -51.56689453 14.27172852 C-50.60470486 13.29797172 -49.64701098 12.31975219 -48.69384766 11.3371582 C-35.96336307 -1.78392576 -17.53120177 -11.08811052 0 0 Z " fill="#B5E409" transform="translate(187,208)"/>
<path d="M0 0 C6.6 0 13.2 0 20 0 C20.03738281 2.39636719 20.07476563 4.79273438 20.11328125 7.26171875 C20.15954043 9.59180643 20.21075793 11.92173627 20.26245117 14.25170898 C20.2956311 15.86651963 20.32368458 17.48144431 20.34643555 19.09643555 C20.38011025 21.42285592 20.43242963 23.74823783 20.48828125 26.07421875 C20.49467117 26.79212082 20.5010611 27.51002289 20.50764465 28.24967957 C20.63593116 32.65890418 21.33761124 35.46687751 24 39 C27.98130619 42.48364292 31.56146072 43.38296496 36.87109375 43.265625 C40.64543506 42.79469801 43.21000205 41.57087914 46 39 C50.16330499 31.62155472 49.55263682 22.64862997 49.6875 14.4375 C49.72073948 13.0331726 49.75523505 11.62887433 49.79101562 10.22460938 C49.8729933 6.81668025 49.93818494 3.40835446 50 0 C56.27 0 62.54 0 69 0 C69.09237735 5.22958435 69.17184382 10.45628164 69.21972656 15.68603516 C69.23970839 17.46087289 69.26690355 19.23564594 69.30175781 21.01025391 C69.52606974 32.73385057 69.59055068 42.86736021 61.9375 52.5 C61.45152344 53.1290625 60.96554687 53.758125 60.46484375 54.40625 C59 56 59 56 56 58 C60.29 58.33 64.58 58.66 69 59 C69.41547405 70.81792842 69.08237134 78.77644843 61.3046875 88.140625 C52.15065446 95.52591267 42.10786704 94.47448742 30.9375 94.25 C29.19598406 94.22990621 27.45444576 94.21166053 25.71289062 94.1953125 C21.47425086 94.15496372 17.23875435 94.07664247 13 94 C13 87.73 13 81.46 13 75 C15.10761719 74.96261719 17.21523438 74.92523438 19.38671875 74.88671875 C21.43882335 74.84044295 23.4907499 74.78923169 25.54272461 74.73754883 C26.96351202 74.70439443 28.38442813 74.67633308 29.80541992 74.65356445 C31.8539082 74.61984153 33.9012272 74.56752255 35.94921875 74.51171875 C37.17987061 74.48553467 38.41052246 74.45935059 39.6784668 74.43237305 C43.23434148 73.96949513 45.16985098 73.16960686 48 71 C49.02273864 68.52938081 49.02273864 68.52938081 49.3125 65.8125 C49.45300781 64.91144531 49.59351563 64.01039063 49.73828125 63.08203125 C49.82464844 62.39496094 49.91101563 61.70789063 50 61 C49.2575 61.309375 48.515 61.61875 47.75 61.9375 C36.10345104 65.23735554 25.05939342 64.35141029 14.390625 58.59765625 C6.47793785 53.30960226 2.06403177 46.20617548 0 37 C-0.61471735 30.62520838 -0.3797909 24.2059264 -0.25 17.8125 C-0.22989539 16.08009887 -0.21165166 14.34767511 -0.1953125 12.61523438 C-0.15508192 8.40912764 -0.07674814 4.20622461 0 0 Z " fill="#000000" transform="translate(827,250)"/>
<path d="M0 0 C10.24180073 6.49553734 16.52148333 14.03736707 19.6484375 25.6796875 C16.0655315 25.82502505 12.48338333 25.91376681 8.8984375 25.9921875 C7.37476563 26.0550293 7.37476563 26.0550293 5.8203125 26.11914062 C-1.76000381 26.24381688 -1.76000381 26.24381688 -4.87890625 23.26953125 C-5.60787109 21.98755859 -5.60787109 21.98755859 -6.3515625 20.6796875 C-11.79151245 17.29482975 -17.11412963 16.02320182 -23.4140625 17.3671875 C-28.53819453 18.86379086 -32.1266072 21.2891977 -35.6640625 25.3046875 C-38.49878119 30.97412489 -39.2400436 36.80678606 -37.3515625 42.9296875 C-34.83969602 48.56996951 -30.54488315 51.74549537 -24.9765625 54.1171875 C-17.51917228 55.27436874 -12.28483618 54.18321724 -5.98046875 50.03125 C-4.08478296 48.58948879 -4.08478296 48.58948879 -2.3515625 45.6796875 C-0.10498047 45.33911133 -0.10498047 45.33911133 2.65625 45.38671875 C3.64238281 45.39638672 4.62851562 45.40605469 5.64453125 45.41601562 C6.67707031 45.44115234 7.70960938 45.46628906 8.7734375 45.4921875 C10.33384766 45.51249023 10.33384766 45.51249023 11.92578125 45.53320312 C14.50051377 45.56863522 17.0742208 45.61803529 19.6484375 45.6796875 C17.8423421 55.23870575 12.97475386 62.56824671 5.01171875 68.1875 C-5.58712491 74.87966244 -16.05631359 76.27820602 -28.3515625 74.6796875 C-36.50129664 72.67536502 -42.57431516 68.66419035 -48.3515625 62.6796875 C-48.90585937 62.14601563 -49.46015625 61.61234375 -50.03125 61.0625 C-57.60677594 53.18546059 -58.93058488 43.76237744 -58.82861328 33.25170898 C-58.59885527 27.10990103 -57.43665773 22.05717989 -54.3515625 16.6796875 C-53.7740625 15.6484375 -53.1965625 14.6171875 -52.6015625 13.5546875 C-40.16062697 -2.34206346 -18.93963209 -9.39023776 0 0 Z " fill="#000000" transform="translate(715.3515625,239.3203125)"/>
<path d="M0 0 C6.249375 -0.061875 12.49875 -0.12375 18.9375 -0.1875 C20.89163818 -0.21481201 22.84577637 -0.24212402 24.85913086 -0.27026367 C26.4360289 -0.27903871 28.01293383 -0.28668023 29.58984375 -0.29296875 C30.38588013 -0.30831665 31.1819165 -0.32366455 32.0020752 -0.33947754 C41.39721455 -0.34378526 48.26281041 2.34389391 55.0546875 8.828125 C60.99321757 15.4582911 63.40643234 24.12433047 62.9375 32.9375 C61.89343586 40.82325504 58.18683513 47.96420396 52 53 C44.22935177 58.84079494 36.6036214 60.47230925 27 60 C25.02 59.67 23.04 59.34 21 59 C20.67 64.61 20.34 70.22 20 76 C13.4 76 6.8 76 0 76 C0 50.92 0 25.84 0 0 Z M20 20 C19.89135055 22.06132142 19.81411679 24.12431321 19.75 26.1875 C19.70359375 27.33605469 19.6571875 28.48460937 19.609375 29.66796875 C20.07589788 33.64740888 21.22352574 35.17759142 24 38 C27.68544493 40.25221634 30.91137534 40.28099782 35.06640625 39.59765625 C38.44147345 38.55445366 39.97525819 36.82236738 42 34 C43.12609115 30.05868098 43.41447672 27.98165538 41.8125 24.1875 C39.81556956 21.77741154 38.91850934 21.05825623 36 20 C33.21175242 19.86002773 30.53172884 19.8111087 27.75 19.875 C27.00492187 19.88402344 26.25984375 19.89304687 25.4921875 19.90234375 C23.66131941 19.92581642 21.83061762 19.96168475 20 20 Z " fill="#000000" transform="translate(305,237)"/>
<path d="M0 0 C1.17175781 -0.02900391 1.17175781 -0.02900391 2.3671875 -0.05859375 C11.0142994 1.49690655 16.5018603 7.22441222 22.4375 13.3125 C23.63342773 14.49779297 23.63342773 14.49779297 24.85351562 15.70703125 C30.01314644 20.92307519 34.54981656 25.57560429 34.5625 33.3125 C34.58183594 34.09367187 34.60117188 34.87484375 34.62109375 35.6796875 C33.07103191 44.29656668 27.36432813 49.8161604 21.3125 55.75 C20.13977539 56.94592773 20.13977539 56.94592773 18.94335938 58.16601562 C13.35009898 63.72189416 8.43244124 67.82775037 0.1875 67.9375 C-0.58464844 67.9684375 -1.35679687 67.999375 -2.15234375 68.03125 C-10.20799147 66.27449469 -16.09236605 59.71195564 -21.6875 54.0625 C-22.43708984 53.33289063 -23.18667969 52.60328125 -23.95898438 51.8515625 C-29.38931404 46.41638 -33.26814368 41.52758119 -33.375 33.5 C-33.4059375 32.72785156 -33.436875 31.95570313 -33.46875 31.16015625 C-31.70544884 23.07449238 -25.12203396 17.22063595 -19.4375 11.625 C-18.69951172 10.87541016 -17.96152344 10.12582031 -17.20117188 9.35351562 C-12.12151244 4.30094771 -7.54387889 0.01236701 0 0 Z " fill="#FEFEFD" transform="translate(168.875,246.5625)"/>
<path d="M0 0 C0.495 1.485 0.495 1.485 1 3 C1.99 3.33 2.98 3.66 4 4 C6 7 6 7 6 10 C5.34 10 4.68 10 4 10 C3.75507812 10.67417969 3.51015625 11.34835937 3.2578125 12.04296875 C1.72738164 15.64090714 -0.15843308 18.93876063 -2.125 22.3125 C-2.49753906 22.95767578 -2.87007812 23.60285156 -3.25390625 24.26757812 C-4.16632213 25.84675945 -5.08275509 27.42361864 -6 29 C-4.06087416 28.21232408 -2.12375234 27.4197133 -0.1875 26.625 C0.89144531 26.18414062 1.97039063 25.74328125 3.08203125 25.2890625 C6.10730112 24.0520881 6.10730112 24.0520881 9 22 C9.99 22 10.98 22 12 22 C12.82439834 32.76297827 9.51821866 41.00056559 3.19140625 49.6640625 C-3.22733217 56.50614017 -10.99633555 59.61694411 -20.18359375 60.203125 C-26.66622561 60.29651225 -31.31910012 60.18130394 -37 57 C-37.97646484 56.46052734 -37.97646484 56.46052734 -38.97265625 55.91015625 C-40.66305985 54.96581547 -42.33366845 53.98619623 -44 53 C-44 52.34 -44 51.68 -44 51 C-44.99 50.67 -45.98 50.34 -47 50 C-52.7268033 42.91799897 -55.38590305 35.02008761 -54.8046875 25.953125 C-53.89763127 19.45530401 -52.02282891 13.810875 -49 8 C-48.34 8 -47.68 8 -47 8 C-46.79375 7.443125 -46.5875 6.88625 -46.375 6.3125 C-42.66306442 0.06969925 -35.32322875 -3.72183509 -28.75 -6.25 C-17.48848562 -8.50230288 -9.46938592 -6.22845524 0 0 Z M-31.875 18.5 C-34.53834874 22.05113165 -34.07997451 25.76135094 -34 30 C-26.62696477 26.52939556 -19.7995816 22.48565554 -13 18 C-15.1660888 15.58598537 -15.96595326 15.00916643 -19.25 14.125 C-24.31212388 13.95626254 -27.9181003 15.33448024 -31.875 18.5 Z M-18.625 35.5 C-19.23601563 35.83386719 -19.84703125 36.16773438 -20.4765625 36.51171875 C-21.98641801 37.33742098 -23.49347848 38.16823037 -25 39 C-25 39.33 -25 39.66 -25 40 C-23.5629191 40.05422947 -22.12524538 40.09289723 -20.6875 40.125 C-19.48673828 40.15980469 -19.48673828 40.15980469 -18.26171875 40.1953125 C-15.71611424 40.15817322 -15.71611424 40.15817322 -13 38 C-13 37.34 -13 36.68 -13 36 C-12.34 36 -11.68 36 -11 36 C-10.67 34.68 -10.34 33.36 -10 32 C-13.25914119 32 -15.83330149 33.95502155 -18.625 35.5 Z " fill="#B5E409" transform="translate(802,254)"/>
<path d="M0 0 C0.495 1.485 0.495 1.485 1 3 C1.99 3.33 2.98 3.66 4 4 C6 7 6 7 6 10 C5.34 10 4.68 10 4 10 C3.75507812 10.67417969 3.51015625 11.34835937 3.2578125 12.04296875 C1.72738164 15.64090714 -0.15843308 18.93876063 -2.125 22.3125 C-2.49753906 22.95767578 -2.87007812 23.60285156 -3.25390625 24.26757812 C-4.16632213 25.84675945 -5.08275509 27.42361864 -6 29 C-4.06087416 28.21232408 -2.12375234 27.4197133 -0.1875 26.625 C0.89144531 26.18414062 1.97039063 25.74328125 3.08203125 25.2890625 C6.10730112 24.0520881 6.10730112 24.0520881 9 22 C9.99 22 10.98 22 12 22 C12.82439834 32.76297827 9.51821866 41.00056559 3.19140625 49.6640625 C-3.22733217 56.50614017 -10.99633555 59.61694411 -20.18359375 60.203125 C-26.66622561 60.29651225 -31.31910012 60.18130394 -37 57 C-37.97646484 56.46052734 -37.97646484 56.46052734 -38.97265625 55.91015625 C-40.66305985 54.96581547 -42.33366845 53.98619623 -44 53 C-44 52.34 -44 51.68 -44 51 C-44.99 50.67 -45.98 50.34 -47 50 C-52.7268033 42.91799897 -55.38590305 35.02008761 -54.8046875 25.953125 C-53.89763127 19.45530401 -52.02282891 13.810875 -49 8 C-48.34 8 -47.68 8 -47 8 C-46.79375 7.443125 -46.5875 6.88625 -46.375 6.3125 C-42.66306442 0.06969925 -35.32322875 -3.72183509 -28.75 -6.25 C-17.48848562 -8.50230288 -9.46938592 -6.22845524 0 0 Z M-31.875 18.5 C-34.53834874 22.05113165 -34.07997451 25.76135094 -34 30 C-26.62696477 26.52939556 -19.7995816 22.48565554 -13 18 C-15.1660888 15.58598537 -15.96595326 15.00916643 -19.25 14.125 C-24.31212388 13.95626254 -27.9181003 15.33448024 -31.875 18.5 Z M-18.625 35.5 C-19.23601563 35.83386719 -19.84703125 36.16773438 -20.4765625 36.51171875 C-21.98641801 37.33742098 -23.49347848 38.16823037 -25 39 C-25 39.33 -25 39.66 -25 40 C-23.5629191 40.05422947 -22.12524538 40.09289723 -20.6875 40.125 C-19.48673828 40.15980469 -19.48673828 40.15980469 -18.26171875 40.1953125 C-15.71611424 40.15817322 -15.71611424 40.15817322 -13 38 C-13 37.34 -13 36.68 -13 36 C-12.34 36 -11.68 36 -11 36 C-10.67 34.68 -10.34 33.36 -10 32 C-13.25914119 32 -15.83330149 33.95502155 -18.625 35.5 Z " fill="#B5E409" transform="translate(551,254)"/>
<path d="M0 0 C6.27 0 12.54 0 19 0 C19.390625 3.22265625 19.78125 6.4453125 20.171875 9.66796875 C21.10333782 13.41578849 22.32982639 15.24638346 25 18 C29.54547313 20.62238835 32.99379606 21.51436876 38.078125 20.55859375 C41.44405543 19.5802847 43.42513259 18.39522549 46 16 C48.55983484 10.83033355 49.18328425 5.71701024 50 0 C56.27 0 62.54 0 69 0 C69.5314712 12.33013192 69.02732576 21.92464685 61 32 C61.40992188 32.56847656 61.81984375 33.13695312 62.2421875 33.72265625 C62.78101563 34.49480469 63.31984375 35.26695312 63.875 36.0625 C64.40867187 36.81660156 64.94234375 37.57070313 65.4921875 38.34765625 C69.96619232 46.21773209 69.15542334 54.21858122 69 63 C62.73 63 56.46 63 50 63 C49.54427083 60.03776042 49.08854167 57.07552083 48.6328125 54.11328125 C48.03454162 51.16993624 47.33247905 48.68901007 46 46 C43.60470331 44.67518454 43.60470331 44.67518454 41 44 C40.01 43.67 39.02 43.34 38 43 C32.68933397 42.59919502 29.62258572 43.41995216 25 46 C24.34 46 23.68 46 23 46 C22.514136 47.51870698 22.03668799 49.04010699 21.5625 50.5625 C21.29566406 51.40941406 21.02882813 52.25632812 20.75390625 53.12890625 C19.90514688 56.3612282 19.47261607 59.69168748 19 63 C12.73 63 6.46 63 0 63 C-0.39437444 52.15470283 -0.2741422 43.93630861 6.25 34.875 C7.11625 33.946875 7.11625 33.946875 8 33 C6.92851916 30.84707106 5.84618418 28.70099355 4.74609375 26.5625 C4.31425781 25.716875 3.88242187 24.87125 3.4375 24 C3.00308594 23.154375 2.56867188 22.30875 2.12109375 21.4375 C-0.06392231 16.68680306 -0.12561315 12.42639524 -0.0625 7.25 C-0.041875 4.8575 -0.02125 2.465 0 0 Z " fill="#000000" transform="translate(414,250)"/>
<path d="M0 0 C0.495 11.88 0.495 11.88 1 24 C4.3 19.71 7.6 15.42 11 11 C14 12 14 12 15.1328125 13.890625 C19.15045653 23.44439269 20.31650441 31.53793722 17.04296875 41.54296875 C13.07072441 50.90080279 5.23758687 57.18528801 -4 61 C-11.58641353 63.46923952 -21.52750646 63.04953273 -28.9140625 60.09765625 C-37.98283892 55.32550986 -44.87744018 47.86445034 -48 38 C-48.93523582 26.47352221 -48.47890639 17.87614409 -40.875 8.8125 C-28.92577711 -3.79518898 -16.13465663 -4.84039699 0 0 Z M-26.3125 22.25 C-28.43618669 25.71082275 -29 27.93098832 -29 32 C-27.64938615 36.07700826 -25.7530255 38.46945931 -22.25 40.9375 C-17.00495857 42.65222508 -12.97141079 42.68241143 -7.75 40.875 C-4.31181791 38.53078494 -2.75607311 36.79311791 -1 33 C-0.56854572 28.10730842 -1.26124016 24.93842467 -4.3125 21.0625 C-11.81508016 15.30470592 -19.28238545 15.40988854 -26.3125 22.25 Z " fill="#000000" transform="translate(994,252)"/>
<path d="M0 0 C7.42898198 6.28368059 12.77889802 12.57830269 13.94963074 22.54380798 C14.03045546 24.79704268 14.02622059 27.03099641 13.98046875 29.28515625 C13.97622391 30.09367538 13.97197906 30.90219452 13.96760559 31.73521423 C13.95100035 34.28216873 13.91338533 36.8282904 13.875 39.375 C13.85992958 41.11652492 13.84624534 42.85806241 13.83398438 44.59960938 C13.80372594 48.83780759 13.74497519 53.07423722 13.6875 57.3125 C7.4175 57.3125 1.1475 57.3125 -5.3125 57.3125 C-5.36857422 54.32896484 -5.36857422 54.32896484 -5.42578125 51.28515625 C-5.47451124 49.32899519 -5.52334497 47.37283535 -5.57495117 45.41674805 C-5.62400935 43.41541389 -5.65883137 41.41374694 -5.69335938 39.41210938 C-5.88346798 29.0075795 -5.88346798 29.0075795 -9.3125 19.3125 C-12.72731184 16.09454139 -16.16955894 15.07396255 -20.8125 14.8125 C-25.45544106 15.07396255 -28.89768816 16.09454139 -32.3125 19.3125 C-36.35478732 26.59893612 -35.86074951 35.30245024 -36 43.375 C-36.03324298 44.73115132 -36.06773885 46.08727253 -36.10351562 47.44335938 C-36.18545873 50.73278991 -36.25066835 54.02262998 -36.3125 57.3125 C-42.5825 57.3125 -48.8525 57.3125 -55.3125 57.3125 C-55.40490113 52.22530445 -55.48435895 47.14108063 -55.53222656 42.05371094 C-55.55220285 40.32737298 -55.57939372 38.60110147 -55.61425781 36.875 C-55.97347073 18.61853192 -55.97347073 18.61853192 -51.3125 10.3125 C-50.77625 9.260625 -50.24 8.20875 -49.6875 7.125 C-38.03149695 -6.67816151 -15.17695452 -10.79446184 0 0 Z " fill="#000000" transform="translate(1082.3125,255.6875)"/>
<path d="M0 0 C6.6 0 13.2 0 20 0 C20 25.08 20 50.16 20 76 C13.4 76 6.8 76 0 76 C0 50.92 0 25.84 0 0 Z " fill="#000000" transform="translate(911,237)"/>
<path d="M0 0 C6.6 0 13.2 0 20 0 C20 25.08 20 50.16 20 76 C13.4 76 6.8 76 0 76 C0 50.92 0 25.84 0 0 Z " fill="#000000" transform="translate(576,237)"/>
<path d="M0 0 C6.6 0 13.2 0 20 0 C20 15.84 20 31.68 20 48 C13.4 48 6.8 48 0 48 C0 32.16 0 16.32 0 0 Z " fill="#000000" transform="translate(380,265)"/>
<path d="M0 0 C2.82275936 1.25455972 4.46288541 2.28384722 6.3125 4.75 C7.32815881 8.0739743 7.41796486 10.53686262 7 14 C4.55228556 18.00535091 3.07397557 19.66804391 -1.4375 21.0625 C-5.50234831 20.99118687 -7.61145766 20.20649268 -11 18 C-13.6790573 13.98141405 -13.69610694 10.72358279 -13 6 C-9.39669759 0.23471614 -6.65938858 -0.45148397 0 0 Z " fill="#000000" transform="translate(393,237)"/>
</svg>
